<svg xmlns="http://www.w3.org/2000/svg" viewBox="0 0 800 450" width="800" height="450">
  <defs>
    <linearGradient id="bg2" x1="0" y1="0" x2="1" y2="1">
      <stop offset="0%" stop-color="#10141c"/>
      <stop offset="100%" stop-color="#171c27"/>
    </linearGradient>
    <pattern id="grid2" width="32" height="32" patternUnits="userSpaceOnUse">
      <path d="M 32 0 L 0 0 0 32" fill="none" stroke="#212734" stroke-width="1"/>
    </pattern>
  </defs>
  <rect width="800" height="450" fill="url(#bg2)"/>
  <rect width="800" height="450" fill="url(#grid2)"/>
  <g fill="none" stroke="#f7b955" stroke-width="2" opacity="0.9">
    <polygon points="320,150 400,120 460,170 430,240 350,250 300,210"/>
    <polygon points="430,240 500,220 540,280 490,330 420,320"/>
    <polygon points="300,210 260,260 300,320 360,330 350,250"/>
    <line x1="400" y1="120" x2="420" y2="70"/>
    <line x1="460" y1="170" x2="520" y2="150"/>
    <line x1="300" y1="210" x2="240" y2="180"/>
  </g>
  <text x="400" y="410" font-family="JetBrains Mono, monospace" font-size="22" fill="#e6e9ef" text-anchor="middle">destruction_toolkit.hda</text>
</svg>
